<svg xmlns="http://www.w3.org/2000/svg" width="142" height="178" viewBox="0 0 142 178" fill="none">
  <path d="M137.952 154.812C120.738 157.781 111.653 170.892 109.262 177.077H141.226H141.538V73.1763C137.952 52.1489 122.89 8.60975 91.3305 2.67257C59.7711 -3.26461 39.927 2.67257 33.9499 6.38331C62.6402 6.38331 91.3305 36.0692 102.089 50.9121L112.256 63.8461L123.12 81.5384L128.225 91.5149C129.648 94.2962 130.868 97.1765 131.877 100.133L132.452 101.82C135.825 111.708 136.486 122.319 134.366 132.548L127.193 106.573C121.216 85.5458 97.0685 46.4593 48.295 58.3337C-0.478485 70.2081 -3.10841 110.284 1.67331 128.838C5.2596 116.469 20.322 90.9881 51.8813 88.0195C83.4406 85.051 108.635 95.6923 109.262 102.863C104.081 100.472 98.4409 99.2137 92.7353 99.1806C89.4318 99.1615 86.0986 99.6039 83.1399 101.074C61.7279 111.709 60.4002 138.355 62.6402 151.102L76.9853 132.548L84.1579 125.127L91.3305 121.416C122.89 112.51 135.561 139.97 137.952 154.812Z" fill="white"/>
</svg>