<svg xmlns="http://www.w3.org/2000/svg" width="59" height="68" viewBox="0 0 59 68" fill="none">
  <path d="M1.33977 55.6602C0.186318 56.8137 0.178815 58.6946 1.42538 59.7467C4.73009 62.5359 8.52998 64.6943 12.6363 66.1039C17.6757 67.8338 23.0436 68.3903 28.3308 67.731C33.618 67.0717 38.6848 65.214 43.1452 62.2995C47.6055 59.385 51.3415 55.4907 54.0685 50.9133C56.7955 46.3359 58.4414 41.1963 58.8808 35.8864C59.3202 30.5764 58.5415 25.2362 56.604 20.2728C54.6665 15.3095 51.6214 10.854 47.7008 7.24595C44.5062 4.30605 40.7991 1.99206 36.7729 0.413898C35.2542 -0.181399 33.6037 0.720713 33.1385 2.28421C32.6733 3.8477 33.5714 5.47833 35.0797 6.09957C38.2479 7.40447 41.168 9.26192 43.7007 11.5926C46.9596 14.5917 49.4907 18.2952 51.1012 22.4209C52.7117 26.5466 53.359 30.9855 52.9937 35.3992C52.6285 39.813 51.2604 44.0851 48.9936 47.8899C46.7269 51.6948 43.6214 54.9319 39.9139 57.3545C36.2064 59.7771 31.9947 61.3212 27.5999 61.8692C23.205 62.4173 18.7431 61.9546 14.5542 60.5167C11.2988 59.3992 8.27506 57.7155 5.61914 55.5507C4.35473 54.5201 2.49322 54.5068 1.33977 55.6602Z" fill="url(#paint0_linear_176_295)"/>
  <defs>
    <linearGradient id="paint0_linear_176_295" x1="40.1314" y1="3.12479" x2="23.1847" y2="68.99" gradientUnits="userSpaceOnUse">
      <stop stop-color="white"/>
      <stop offset="0.538063" stop-color="#95BBD2"/>
      <stop offset="1" stop-color="#D9D9D9" stop-opacity="0"/>
    </linearGradient>
  </defs>
</svg>