<svg xmlns="http://www.w3.org/2000/svg" width="143" height="178" viewBox="0 0 143 178" fill="none">
  <path d="M4.28047 154.812C21.4946 157.781 30.5799 170.892 32.9708 177.077H1.00714H0.694183V73.1763C4.28047 52.1489 19.3429 8.60975 50.9022 2.67257C82.4615 -3.26461 102.306 2.67257 108.283 6.38331C79.5925 6.38331 50.9022 36.0692 40.1433 50.9121L29.9763 63.8461L19.1129 81.5384L14.0081 91.5149C12.5849 94.2962 11.3643 97.1765 10.3556 100.133L9.7802 101.82C6.40733 111.708 5.74659 122.319 7.86676 132.548L15.0393 106.573C21.0165 85.5458 45.1641 46.4593 93.9376 58.3337C142.711 70.2081 145.341 110.284 140.559 128.838C136.973 116.469 121.911 90.9881 90.3513 88.0195C58.792 85.051 33.5975 95.6923 32.9708 102.863C38.1513 100.472 43.7918 99.2137 49.4973 99.1806C52.8009 99.1615 56.134 99.6039 59.0928 101.074C80.5048 111.709 81.8325 138.355 79.5925 151.102L65.2473 132.548L58.0748 125.127L50.9022 121.416C19.3429 112.51 6.67133 139.97 4.28047 154.812Z" fill="white"/>
</svg>