<svg xmlns="http://www.w3.org/2000/svg" width="22" height="27" viewBox="0 0 22 27" fill="none">
  <path d="M11.0324 0C7.86482 0.00237177 5.26579 2.57996 5.26579 5.81018C5.26579 7.15682 5.73964 8.42836 6.48926 9.41726C6.25058 9.38669 6.01734 9.34307 5.77053 9.34307C2.60123 9.34307 0 11.9955 0 15.2273C0 18.4588 2.60123 21.1114 5.77053 21.1114C7.06274 21.1114 8.25468 20.67 9.21506 19.9295L6.31985 27H15.6723L12.7325 19.8228C13.7151 20.6249 14.9553 21.1117 16.2982 21.1117C19.4675 21.1117 22 18.4592 22 15.2276C22 11.9959 19.4673 9.34347 16.2981 9.34347C16.0267 9.34347 15.7678 9.37983 15.5065 9.41752C16.2672 8.42467 16.7341 7.16802 16.7341 5.81045C16.7341 2.58022 14.2035 0.00263609 11.0362 0.000396084H11.0323L11.0324 0Z" fill="#F8F8F8"/>
</svg>