<svg width="16" height="16" viewBox="0 0 16 16" fill="none" xmlns="http://www.w3.org/2000/svg">
<circle cx="8" cy="8" r="7.5" stroke="white"/>
<path d="M5.336 8.248C5.336 7.768 5.42133 7.336 5.592 6.952C5.76267 6.568 5.98933 6.25867 6.272 6.024C6.55467 5.784 6.86933 5.60267 7.216 5.48C7.56267 5.35733 7.92533 5.296 8.304 5.296C8.87467 5.296 9.40533 5.41867 9.896 5.664V6.552C9.496 6.27467 9.016 6.136 8.456 6.136C7.864 6.136 7.352 6.31467 6.92 6.672C6.488 7.02933 6.26933 7.55467 6.264 8.248C6.264 8.68533 6.376 9.06133 6.6 9.376C6.824 9.69067 7.09867 9.91733 7.424 10.056C7.74933 10.1947 8.09867 10.264 8.472 10.264C9.06933 10.264 9.55733 10.12 9.936 9.832V10.736C9.43467 10.9813 8.89333 11.104 8.312 11.104C7.93867 11.104 7.57867 11.0453 7.232 10.928C6.88533 10.8053 6.568 10.6293 6.28 10.4C5.992 10.1707 5.76267 9.86933 5.592 9.496C5.42133 9.12267 5.336 8.70667 5.336 8.248Z" fill="white"/>
</svg>
