<svg xmlns="http://www.w3.org/2000/svg" width="34" height="25" viewBox="0 0 34 25" fill="none">
  <path d="M30.2222 0H3.77778C2.77585 0 1.81496 0.398015 1.10649 1.10649C0.398015 1.81496 0 2.77585 0 3.77778V20.7778C0 21.7797 0.398015 22.7406 1.10649 23.4491C1.81496 24.1575 2.77585 24.5556 3.77778 24.5556H30.2222C31.2241 24.5556 32.185 24.1575 32.8935 23.4491C33.602 22.7406 34 21.7797 34 20.7778V3.77778C34 2.77585 33.602 1.81496 32.8935 1.10649C32.185 0.398015 31.2241 0 30.2222 0ZM11.9302 13.8191L14.9562 16.4636C15.5323 16.966 16.2614 17.2153 17 17.2153C17.7386 17.2153 18.4677 16.9641 19.0438 16.4636L22.0698 13.8191L21.9999 13.889L28.8868 20.7759H5.11322L12.0001 13.889L11.9302 13.8191ZM3.77778 19.4423V6.68667L10.5816 12.6386L3.77778 19.4423ZM23.4184 12.6386L30.2222 6.68667V19.4367L23.4184 12.6386ZM30.2222 3.77778V4.17444L17.8009 15.0431C17.5734 15.2246 17.291 15.3234 17 15.3234C16.709 15.3234 16.4266 15.2246 16.1991 15.0431L3.77778 4.17444V3.77778H30.2222Z" fill="#F8F8F8"/>
</svg>